<svg width="26" height="27" viewBox="0 0 26 27" fill="none" xmlns="http://www.w3.org/2000/svg">
<path d="M7.99434 17.943H17.9849M11.7629 2.37086L3.29302 8.95854C2.72685 9.3989 2.44376 9.61908 2.23982 9.89481C2.05916 10.1391 1.92458 10.4142 1.84269 10.7068C1.75024 11.0371 1.75024 11.3957 1.75024 12.113V21.148C1.75024 22.5468 1.75024 23.2463 2.02247 23.7806C2.26192 24.2505 2.64401 24.6326 3.11398 24.872C3.64825 25.1443 4.34765 25.1443 5.74646 25.1443H20.2328C21.6316 25.1443 22.331 25.1443 22.8653 24.872C23.3352 24.6326 23.7173 24.2505 23.9567 23.7806C24.229 23.2463 24.229 22.5468 24.229 21.148V12.113C24.229 11.3957 24.229 11.0371 24.1366 10.7068C24.0546 10.4142 23.92 10.1391 23.7394 9.89481C23.5355 9.61908 23.2524 9.3989 22.6862 8.95854L14.2163 2.37086C13.7776 2.02962 13.5582 1.85899 13.3159 1.7934C13.1023 1.73553 12.877 1.73553 12.6633 1.7934C12.421 1.85899 12.2016 2.02962 11.7629 2.37086Z" stroke="#8A8B8C" stroke-width="3.5" stroke-linecap="round" stroke-linejoin="round"/>
</svg>
