<svg width="32" height="27" viewBox="0 0 32 27" fill="none" xmlns="http://www.w3.org/2000/svg">
<path d="M23.5807 25.14C23.5807 22.5563 20.0899 20.462 15.784 20.462C11.478 20.462 7.98733 22.5563 7.98733 25.14M29.818 20.4626C29.818 18.5443 27.8936 16.8956 25.14 16.1738M1.75 20.4626C1.75 18.5443 3.67437 16.8956 6.428 16.1738M25.14 9.91483C26.097 9.05827 26.6993 7.81347 26.6993 6.428C26.6993 3.84442 24.605 1.75 22.0213 1.75C20.8231 1.75 19.7304 2.20041 18.9027 2.94116M6.428 9.91483C5.47096 9.05827 4.86867 7.81347 4.86867 6.428C4.86867 3.84442 6.96309 1.75 9.54667 1.75C10.7448 1.75 11.8377 2.20041 12.6653 2.94116M15.784 15.784C13.2003 15.784 11.106 13.6897 11.106 11.106C11.106 8.52242 13.2003 6.428 15.784 6.428C18.3677 6.428 20.462 8.52242 20.462 11.106C20.462 13.6897 18.3677 15.784 15.784 15.784Z" stroke="#1E1E1E" stroke-width="3.5" stroke-linecap="round" stroke-linejoin="round"/>
</svg>
