<svg width="195" height="61" viewBox="0 0 195 61" fill="none" xmlns="http://www.w3.org/2000/svg">
<path d="M0.483801 0L0.362851 0.120792H0.241901L0.12095 0.241584V0.362376L0 0.483168V45.5386L0.362851 45.901H0.967603L1.4514 45.4178V45.297L2.05616 44.6931V44.5723L2.90281 43.7267V43.6059L3.87041 42.6396V42.5188L5.32181 41.0693V40.9485L6.77322 39.499H6.89417L8.10367 38.2911H8.22462L9.19222 37.3248H9.31318L11.2484 35.3921V35.2713L11.4903 35.0297V34.9089L11.7322 34.6673V34.5465L11.8531 34.4257V34.305L11.9741 34.1842V34.0634L12.095 33.9426V33.8218L12.216 33.701V33.3386L12.3369 33.2178V32.8554L12.4579 32.7347V12.3208L12.5788 12.2V12.0792L12.8207 11.8376H12.9417L13.0626 11.7168H26.3672L26.4881 11.8376H27.4557L27.5767 11.9584H28.1814L28.3024 12.0792H28.7862L28.9071 12.2H29.27L29.3909 12.3208H29.7538L29.8747 12.4416H30.2376L30.3585 12.5624H30.6004L30.7214 12.6832H30.9633L31.0842 12.804H31.3261L31.4471 12.9248H31.568L31.689 13.0455H31.9309L32.0518 13.1663H32.1728L32.2937 13.2871H32.4147L32.5356 13.4079H32.7775L32.8985 13.5287H33.0194L33.2613 13.7703H33.3823L33.5032 13.8911H33.6242L33.7451 14.0119H33.8661L33.987 14.1327H34.108L34.3499 14.3743H34.4708L34.7127 14.6158H34.8337L35.1965 14.9782H35.3175L35.6803 15.3406H35.8013L36.527 16.0653H36.6479L38.3413 17.7564V17.8772L38.946 18.4812V18.602L39.3089 18.9644V19.0851L39.5508 19.3267V19.4475L39.6717 19.5683V19.6891L39.9136 19.9307V20.0515L40.0346 20.1723V20.2931L40.1555 20.4139V20.5347L40.3974 20.7762V21.0178L40.5184 21.1386V21.2594L40.6393 21.3802V21.501L40.7603 21.6218V21.7426L40.8812 21.8634V21.9842L41.0022 22.1049V22.3465L41.1231 22.4673V22.7089L41.2441 22.8297V22.9505L41.365 23.0713V23.3129L41.486 23.4337V23.6752L41.6069 23.796V24.1584L41.7279 24.2792V24.5208L41.8488 24.6416V25.1248L41.9698 25.2455V25.6079L42.0907 25.7287V26.2119L42.2117 26.3327V27.0574L42.3326 27.1782V28.2653L42.4536 28.3861V31.0436L42.3326 31.1644V32.2515L42.2117 32.3723V33.097L42.0907 33.2178V33.701L41.9698 33.8218V34.305L41.8488 34.4257V34.7881L41.7279 34.9089V35.1505L41.6069 35.2713V35.6337L41.486 35.7545V35.996L41.365 36.1168V36.2376L41.2441 36.3584V36.6L41.1231 36.7208V36.9624L41.0022 37.0832V37.204L40.8812 37.3248V37.4455L40.7603 37.5663V37.8079L40.6393 37.9287V38.0495L40.5184 38.1703V38.2911L40.3974 38.4119V38.5327L40.2765 38.6535V38.7743L40.1555 38.8951V39.0158L39.9136 39.2574V39.3782L39.7927 39.499V39.6198L39.5508 39.8614V39.9822L39.4298 40.103V40.2238L39.067 40.5861V40.7069L38.8251 40.9485V41.0693L38.4622 41.4317V41.5525L37.7365 42.2772V42.398L36.406 43.7267H36.2851L35.5594 44.4515H35.4384L35.0756 44.8139H34.9546L34.7127 45.0554H34.5918L34.3499 45.297H34.2289L33.987 45.5386H33.8661L33.6242 45.7802H33.5032L33.3823 45.901H33.2613L33.1404 46.0218H33.0194L32.7775 46.2634H32.6566L32.5356 46.3842H32.4147L32.2937 46.5049H32.1728L32.0518 46.6257H31.8099L31.689 46.7465H31.568L31.4471 46.8673H31.3261L31.2052 46.9881H30.9633L30.8423 47.1089H30.7214L30.6004 47.2297H30.2376L30.1166 47.3505H29.8747L29.7538 47.4713H29.5119L29.3909 47.5921H29.0281L28.9071 47.7129H28.4233L28.3024 47.8337H27.6976L27.5767 47.9545H26.6091L26.4881 48.0752H22.8596L22.7387 47.9545L22.9806 47.7129H23.1015L23.2225 47.5921H23.3434L23.5853 47.3505H23.7063L23.9482 47.1089H24.0691L24.311 46.8673H24.432L24.6739 46.6257H24.7948L25.0367 46.3842H25.1577L25.3996 46.1426H25.5205L25.7624 45.901H25.8834L26.1253 45.6594H26.2462L26.4881 45.4178H26.6091L26.851 45.1762H26.9719L27.0929 45.0554H27.2138L27.5767 44.6931H27.6976L27.9395 44.4515H28.0605L28.3024 44.2099H28.4233L28.7862 43.8475H28.9071L29.27 43.4851H29.3909L29.7538 43.1228H29.8747L30.4795 42.5188H30.6004L33.2613 39.8614V39.7406L33.8661 39.1366V39.0158L34.2289 38.6535V38.5327L34.4708 38.2911V38.1703L34.7127 37.9287V37.8079L34.9546 37.5663V37.4455L35.1965 37.204V37.0832L35.3175 36.9624V36.8416L35.5594 36.6V36.4792L35.6803 36.3584V36.2376L35.8013 36.1168V35.996L35.9222 35.8752V35.7545L36.0432 35.6337V35.5129L36.1641 35.3921V35.2713L36.2851 35.1505V35.0297L36.406 34.9089V34.7881L36.527 34.6673V34.5465L36.6479 34.4257V34.1842L36.7689 34.0634V33.9426L36.8899 33.8218V33.5802L37.0108 33.4594V33.2178L37.1318 33.097V32.8554L37.2527 32.7347V32.3723L37.3736 32.2515V32.0099L37.4946 31.8891V31.4059L37.6156 31.2851V30.6812L37.7365 30.5604V28.6277H37.0108L36.8899 28.7485H35.9222L35.8013 28.8693H35.0756L34.9546 28.9901H34.4708L34.3499 29.1109H33.8661L33.7451 29.2317H33.3823L33.2613 29.3525H32.8985L32.7775 29.4733H32.4147L32.2937 29.5941H31.9309L31.8099 29.7149H31.568L31.4471 29.8356H31.2052L31.0842 29.9564H30.7214L30.6004 30.0772H30.3585L30.2376 30.198H29.9957L29.8747 30.3188H29.6328L29.5119 30.4396H29.27L29.149 30.5604H29.0281L28.9071 30.6812H28.6652L28.5443 30.802H28.3024L28.1814 30.9228H28.0605L27.9395 31.0436H27.6976L27.5767 31.1644H27.4557L27.3348 31.2851H27.0929L26.9719 31.4059H26.851L26.73 31.5267H26.4881L26.3672 31.6475H26.2462L26.1253 31.7683H25.8834L25.7624 31.8891H25.6415L25.5205 32.0099H25.3996L25.2786 32.1307H25.0367L24.9158 32.2515H24.7948L24.6739 32.3723H24.5529L24.432 32.4931H24.311L24.1901 32.6139H24.0691L23.9482 32.7347H23.7063L23.5853 32.8554H23.4644L23.3434 32.9762H23.2225L23.1015 33.097H22.9806L22.8596 33.2178H22.7387L22.6177 33.3386H22.4968L22.3758 33.4594H22.2549L22.1339 33.5802H22.013L21.892 33.701H21.7711L21.5292 33.9426H21.4082L21.2873 34.0634H21.1663L21.0454 34.1842H20.9244L20.8035 34.305H20.6825L20.5616 34.4257H20.4406L20.1987 34.6673H20.0778L19.9568 34.7881H19.8359L19.594 35.0297H19.473L19.3521 35.1505H19.2311L18.9892 35.3921H18.8683L18.6264 35.6337H18.5054L18.2635 35.8752H18.1425L17.9006 36.1168H17.7797L17.6587 36.2376H17.5378L17.2959 36.4792H17.1749L16.933 36.7208H16.8121L16.4492 37.0832H16.3283L16.0864 37.3248H15.9654L15.7235 37.5663H15.6026L15.3607 37.8079H15.2397L14.8769 38.1703H14.7559L14.514 38.4119H14.3931L14.0302 38.7743H13.9093L13.5464 39.1366H13.4255L12.9417 39.6198H12.8207L12.216 40.2238H12.095L11.3693 40.9485H11.2484L10.5227 41.6733H10.4017L9.43413 42.6396H9.31318L6.04752 45.901V46.0218L5.32181 46.7465V46.8673L4.83801 47.3505V47.4713L4.47516 47.8337V47.9545L3.99136 48.4376V48.5584L3.62851 48.9208V49.0416L3.38661 49.2832V49.404L3.14471 49.6455V49.7663L2.90281 50.0079V50.1287L2.66091 50.3703V50.4911L2.53996 50.6119V50.7327L2.29806 50.9743V51.095L2.17711 51.2158V51.3366L2.05616 51.4574V51.5782L1.93521 51.699V51.8198L1.81425 51.9406V52.0614L1.6933 52.1822V52.303L1.57235 52.4238V52.5446L1.4514 52.6653V52.7861L1.33045 52.9069V53.0277L1.2095 53.1485V53.2693L1.08855 53.3901V53.5109L0.967603 53.6317V53.8733L0.846652 53.9941V54.2356L0.725702 54.3564V54.4772L0.604752 54.598V54.9604L0.483801 55.0812V55.3228L0.362851 55.4436V55.8059L0.241901 55.9267V56.4099L0.12095 56.5307V57.2554L0 57.3762V60.396L0.12095 60.5168V60.6376L0.241901 60.7584H0.362851L0.483801 60.8792H0.846652L0.967603 61H25.6415L25.7624 60.8792H27.6976L27.8186 60.7584H28.7862L28.9071 60.6376H29.6328L29.7538 60.5168H30.3585L30.4795 60.396H30.9633L31.0842 60.2752H31.568L31.689 60.1545H32.0518L32.1728 60.0337H32.5356L32.6566 59.9129H33.0194L33.1404 59.7921H33.5032L33.6242 59.6713H33.8661L33.987 59.5505H34.3499L34.4708 59.4297H34.7127L34.8337 59.3089H35.0756L35.1965 59.1881H35.3175L35.4384 59.0673H35.6803L35.8013 58.9465H36.0432L36.1641 58.8257H36.406L36.527 58.7049H36.6479L36.7689 58.5842H36.8899L37.0108 58.4634H37.2527L37.3736 58.3426H37.4946L37.6156 58.2218H37.7365L37.8575 58.101H37.9784L38.0994 57.9802H38.3413L38.5832 57.7386H38.8251L38.946 57.6178H39.067L39.3089 57.3762H39.4298L39.5508 57.2554H39.6717L39.7927 57.1347H39.9136L40.0346 57.0139H40.1555L40.2765 56.8931H40.3974L40.6393 56.6515H40.7603L40.8812 56.5307H41.0022L41.2441 56.2891H41.365L41.486 56.1683H41.6069L41.8488 55.9267H41.9698L42.2117 55.6851H42.3326L42.5745 55.4436H42.6955L43.0583 55.0812H43.1793L43.4212 54.8396H43.5421L43.905 54.4772H44.0259L44.5097 53.9941H44.6307L45.1145 53.5109H45.2354L46.203 52.5446H46.324L47.8963 50.9743V50.8535L48.8639 49.8871V49.7663L49.3477 49.2832V49.1624L49.7106 48.8V48.6792L50.0734 48.3168V48.196L50.4363 47.8337V47.7129L50.6782 47.4713V47.3505L50.9201 47.1089V46.9881L51.162 46.7465V46.6257L51.4039 46.3842V46.2634L51.5248 46.1426V46.0218L51.7667 45.7802V45.6594L51.8877 45.5386V45.4178L52.0086 45.297V45.1762L52.2505 44.9347V44.8139L52.3715 44.6931V44.5723L52.4924 44.4515V44.3307L52.6134 44.2099V44.0891L52.7343 43.9683V43.8475L52.8553 43.7267V43.6059L52.9762 43.4851V43.3644L53.0972 43.2436V43.1228L53.2181 43.002V42.7604L53.3391 42.6396V42.5188L53.46 42.398V42.1564L53.581 42.0356V41.9149L53.7019 41.7941V41.6733L53.8229 41.5525V41.3109L53.9438 41.1901V40.9485L54.0648 40.8277V40.5861L54.1857 40.4653V40.3446L54.3067 40.2238V39.9822L54.4276 39.8614V39.6198L54.5486 39.499V39.1366L54.6695 39.0158V38.7743L54.7905 38.6535V38.4119L54.9114 38.2911V37.9287L55.0324 37.8079V37.4455L55.1533 37.3248V36.9624L55.2743 36.8416V36.3584L55.3952 36.2376V35.7545L55.5162 35.6337V35.0297L55.6371 34.9089V34.1842L55.7581 34.0634V33.097L55.8791 32.9762V31.4059L56 31.2851V28.1446L55.8791 28.0238V26.3327L55.7581 26.2119V25.2455L55.6371 25.1248V24.4L55.5162 24.2792V23.6752L55.3952 23.5545V23.0713L55.2743 22.9505V22.5881L55.1533 22.4673V22.1049L55.0324 21.9842V21.6218L54.9114 21.501V21.1386L54.7905 21.0178V20.7762L54.6695 20.6554V20.2931L54.5486 20.1723V19.9307L54.4276 19.8099V19.5683L54.3067 19.4475V19.3267L54.1857 19.2059V18.9644L54.0648 18.8436V18.602L53.9438 18.4812V18.3604L53.8229 18.2396V17.998L53.7019 17.8772V17.7564L53.581 17.6356V17.5149L53.46 17.3941V17.1525L53.3391 17.0317V16.9109L53.2181 16.7901V16.6693L53.0972 16.5485V16.4277L52.9762 16.3069V16.1861L52.8553 16.0653V15.9446L52.7343 15.8238V15.703L52.6134 15.5822V15.4614L52.4924 15.3406V15.2198L52.3715 15.099V14.9782L52.1296 14.7366V14.6158L52.0086 14.495V14.3743L51.7667 14.1327V14.0119L51.6458 13.8911V13.7703L51.4039 13.5287V13.4079L51.162 13.1663V13.0455L50.9201 12.804V12.6832L50.6782 12.4416V12.3208L50.3153 11.9584V11.8376L50.0734 11.596V11.4752L49.5896 10.9921V10.8713L49.1058 10.3881V10.2673L48.0173 9.1802V9.05941L47.0497 8.09307H46.9287L45.9611 7.12673H45.8402L45.2354 6.52277H45.1145L44.6307 6.0396H44.5097L44.1469 5.67723H44.0259L43.784 5.43564H43.6631L43.4212 5.19406H43.3002L43.0583 4.95248H42.9374L42.6955 4.71089H42.5745L42.3326 4.46931H42.2117L41.9698 4.22772H41.8488L41.7279 4.10693H41.6069L41.365 3.86535H41.2441L41.1231 3.74455H41.0022L40.8812 3.62376H40.7603L40.6393 3.50297H40.5184L40.3974 3.38218H40.2765L40.1555 3.26139H40.0346L39.9136 3.14059H39.7927L39.6717 3.0198H39.5508L39.4298 2.89901H39.3089L39.1879 2.77822H39.067L38.946 2.65743H38.8251L38.7041 2.53663H38.5832L38.4622 2.41584H38.2203L38.0994 2.29505H37.9784L37.8575 2.17426H37.7365L37.6156 2.05347H37.3736L37.2527 1.93267H37.1318L37.0108 1.81188H36.7689L36.6479 1.69109H36.406L36.2851 1.5703H36.0432L35.9222 1.4495H35.6803L35.5594 1.32871H35.3175L35.1965 1.20792H34.8337L34.7127 1.08713H34.4708L34.3499 0.966337H33.987L33.8661 0.845545H33.5032L33.3823 0.724752H32.8985L32.7775 0.60396H32.2937L32.1728 0.483168H31.568L31.4471 0.362376H30.8423L30.7214 0.241584H29.7538L29.6328 0.120792H28.0605L27.9395 0H0.483801Z" fill="white"/>
<path d="M69.08 53.48C66.456 53.48 64.392 52.728 62.888 51.224C61.416 49.72 60.68 47.528 60.68 44.648V30.248H71V43.64C71 45.144 71.768 45.896 73.304 45.896C73.848 45.896 74.392 45.768 74.936 45.512C75.512 45.256 75.96 44.952 76.28 44.6V30.248H86.6V53H76.904L76.664 51.512C75.8 52.088 74.712 52.568 73.4 52.952C72.12 53.304 70.68 53.48 69.08 53.48ZM106.531 53.48C105.091 53.48 103.843 53.304 102.787 52.952C101.731 52.568 100.755 52.04 99.8593 51.368L99.3793 53H90.4513V20.648H100.771V30.872C101.443 30.52 102.275 30.248 103.267 30.056C104.259 29.864 105.219 29.768 106.147 29.768C109.603 29.768 112.307 30.664 114.259 32.456C116.211 34.248 117.187 37.24 117.187 41.432C117.187 45.496 116.211 48.52 114.259 50.504C112.339 52.488 109.763 53.48 106.531 53.48ZM103.555 46.088C104.579 46.088 105.347 45.752 105.859 45.08C106.403 44.408 106.675 43.24 106.675 41.576C106.675 39.912 106.403 38.776 105.859 38.168C105.347 37.528 104.579 37.208 103.555 37.208C102.435 37.208 101.507 37.528 100.771 38.168V45.032C101.155 45.352 101.571 45.608 102.019 45.8C102.467 45.992 102.979 46.088 103.555 46.088ZM120.076 53V30.248H130.108L130.348 31.832C131.212 31.32 132.348 30.856 133.756 30.44C135.164 30.024 136.604 29.8 138.076 29.768V37.4C137.276 37.432 136.38 37.512 135.388 37.64C134.428 37.768 133.5 37.928 132.604 38.12C131.74 38.28 131.004 38.488 130.396 38.744V53H120.076ZM146.07 53.48C144.63 53.48 143.302 53.224 142.086 52.712C140.87 52.2 139.894 51.4 139.158 50.312C138.422 49.192 138.054 47.768 138.054 46.04C138.054 43.576 138.854 41.688 140.454 40.376C142.054 39.032 144.502 38.36 147.798 38.36H153.318V38.024C153.318 37.384 152.95 36.904 152.214 36.584C151.51 36.232 150.358 36.056 148.758 36.056C147.542 36.056 146.23 36.168 144.822 36.392C143.446 36.584 142.134 36.872 140.886 37.256V31.448C142.102 30.936 143.622 30.536 145.446 30.248C147.27 29.928 149.062 29.768 150.822 29.768C154.534 29.768 157.51 30.536 159.75 32.072C161.99 33.576 163.11 35.96 163.11 39.224V53H154.086L153.654 51.272C152.854 51.944 151.83 52.488 150.582 52.904C149.366 53.288 147.862 53.48 146.07 53.48ZM149.814 47.672C150.614 47.672 151.286 47.544 151.83 47.288C152.406 47 152.902 46.648 153.318 46.232V43.784H150.054C148.358 43.784 147.51 44.44 147.51 45.752C147.51 47.032 148.278 47.672 149.814 47.672ZM166.811 53V20.648H177.131V31.4C177.867 30.952 178.795 30.568 179.915 30.248C181.035 29.928 182.235 29.768 183.515 29.768C186.683 29.768 189.003 30.52 190.475 32.024C191.979 33.496 192.731 35.768 192.731 38.84V53H182.363V39.656C182.363 38.824 182.187 38.248 181.835 37.928C181.515 37.576 180.939 37.4 180.107 37.4C179.595 37.4 179.051 37.528 178.475 37.784C177.931 38.04 177.483 38.344 177.131 38.696V53H166.811Z" fill="white"/>
</svg>
