<svg width="72" height="54" viewBox="0 0 72 54" fill="none" xmlns="http://www.w3.org/2000/svg">
<path d="M42.099 24.5604H44.5388C46.9785 24.5604 48.1984 23.3406 48.1984 20.9009V18.4613C48.1984 16.0216 46.9785 14.8018 44.5388 14.8018H42.099C39.6593 14.8018 38.4395 16.0216 38.4395 18.4613V20.9009C38.4395 23.3406 39.6593 24.5604 42.099 24.5604Z" stroke="#636363" stroke-width="2" stroke-miterlimit="10" stroke-linecap="round" stroke-linejoin="round"/>
<path d="M27.4604 39.1986H29.9001C32.3398 39.1986 33.5597 37.9788 33.5597 35.5391V33.0994C33.5597 30.6598 32.3398 29.4399 29.9001 29.4399H27.4604C25.0206 29.4399 23.8008 30.6598 23.8008 33.0994V35.5391C23.8008 37.9788 25.0206 39.1986 27.4604 39.1986Z" stroke="#636363" stroke-width="2" stroke-miterlimit="10" stroke-linecap="round" stroke-linejoin="round"/>
<path d="M28.6802 24.5604C31.3751 24.5604 33.5597 22.3759 33.5597 19.6811C33.5597 16.9863 31.3751 14.8018 28.6802 14.8018C25.9854 14.8018 23.8008 16.9863 23.8008 19.6811C23.8008 22.3759 25.9854 24.5604 28.6802 24.5604Z" stroke="#636363" stroke-width="2" stroke-miterlimit="10" stroke-linecap="round" stroke-linejoin="round"/>
<path d="M43.3189 39.1986C46.0137 39.1986 48.1984 37.014 48.1984 34.3193C48.1984 31.6245 46.0137 29.4399 43.3189 29.4399C40.6241 29.4399 38.4395 31.6245 38.4395 34.3193C38.4395 37.014 40.6241 39.1986 43.3189 39.1986Z" stroke="#636363" stroke-width="2" stroke-miterlimit="10" stroke-linecap="round" stroke-linejoin="round"/>
</svg>
